<mxfile host="65bd71144e">
    <diagram id="kgpKYQtTHZ0yAKxKKP6v" name="Page-1">
        <mxGraphModel dx="617" dy="515" grid="1" gridSize="10" guides="1" tooltips="1" connect="1" arrows="1" fold="1" page="1" pageScale="1" pageWidth="850" pageHeight="1100" math="0" shadow="0">
            <root>
                <mxCell id="0"/>
                <mxCell id="1" parent="0"/>
                <mxCell id="h9uBchnlkCVSs993BoGm-1" value="" style="rounded=0;whiteSpace=wrap;html=1;fillColor=none;" parent="1" vertex="1">
                    <mxGeometry x="120" y="240" width="240" height="230" as="geometry"/>
                </mxCell>
                <mxCell id="h9uBchnlkCVSs993BoGm-11" value="" style="rounded=0;whiteSpace=wrap;html=1;fillColor=none;" parent="1" vertex="1">
                    <mxGeometry x="120" y="555" width="400" height="235" as="geometry"/>
                </mxCell>
                <mxCell id="h9uBchnlkCVSs993BoGm-2" value="&lt;b&gt;Gesture&lt;br&gt;&lt;br&gt;&lt;br&gt;Speech&lt;br&gt;&lt;br&gt;&lt;br&gt;Gaze&lt;br&gt;&lt;br&gt;&lt;br&gt;Head&lt;br&gt;&lt;br&gt;&lt;br&gt;Posture&lt;/b&gt;" style="text;html=1;align=center;verticalAlign=middle;resizable=0;points=[];autosize=1;strokeColor=none;fillColor=none;" parent="1" vertex="1">
                    <mxGeometry x="50" y="260" width="70" height="200" as="geometry"/>
                </mxCell>
                <mxCell id="h9uBchnlkCVSs993BoGm-3" value="" style="endArrow=none;html=1;rounded=0;entryX=1;entryY=1;entryDx=0;entryDy=0;exitX=0;exitY=0;exitDx=0;exitDy=0;" parent="1" target="h9uBchnlkCVSs993BoGm-8" edge="1" source="h9uBchnlkCVSs993BoGm-7">
                    <mxGeometry width="50" height="50" relative="1" as="geometry">
                        <mxPoint x="120" y="290" as="sourcePoint"/>
                        <mxPoint x="790" y="290" as="targetPoint"/>
                    </mxGeometry>
                </mxCell>
                <mxCell id="h9uBchnlkCVSs993BoGm-4" value="" style="endArrow=none;html=1;rounded=0;entryX=1;entryY=0;entryDx=0;entryDy=0;" parent="1" target="h9uBchnlkCVSs993BoGm-9" edge="1">
                    <mxGeometry width="50" height="50" relative="1" as="geometry">
                        <mxPoint x="120" y="335" as="sourcePoint"/>
                        <mxPoint x="790" y="335" as="targetPoint"/>
                    </mxGeometry>
                </mxCell>
                <mxCell id="h9uBchnlkCVSs993BoGm-5" value="" style="endArrow=none;html=1;rounded=0;entryX=1;entryY=1;entryDx=0;entryDy=0;exitX=0;exitY=1;exitDx=0;exitDy=0;" parent="1" target="h9uBchnlkCVSs993BoGm-9" edge="1" source="h9uBchnlkCVSs993BoGm-9">
                    <mxGeometry width="50" height="50" relative="1" as="geometry">
                        <mxPoint x="120" y="380" as="sourcePoint"/>
                        <mxPoint x="790" y="380" as="targetPoint"/>
                    </mxGeometry>
                </mxCell>
                <mxCell id="h9uBchnlkCVSs993BoGm-6" value="" style="endArrow=none;html=1;rounded=0;entryX=1.004;entryY=0.782;entryDx=0;entryDy=0;entryPerimeter=0;" parent="1" edge="1" target="h9uBchnlkCVSs993BoGm-1">
                    <mxGeometry width="50" height="50" relative="1" as="geometry">
                        <mxPoint x="120" y="420" as="sourcePoint"/>
                        <mxPoint x="350" y="430" as="targetPoint"/>
                    </mxGeometry>
                </mxCell>
                <mxCell id="h9uBchnlkCVSs993BoGm-7" value="Hey, how can I help you?" style="rounded=0;whiteSpace=wrap;html=1;fillColor=#dae8fc;strokeColor=#6c8ebf;" parent="1" vertex="1">
                    <mxGeometry x="120" y="285" width="200" height="45" as="geometry"/>
                </mxCell>
                <mxCell id="h9uBchnlkCVSs993BoGm-8" value="Wave (Right Hand)" style="rounded=0;whiteSpace=wrap;html=1;fillColor=#dae8fc;strokeColor=#6c8ebf;" parent="1" vertex="1">
                    <mxGeometry x="160" y="240" width="200" height="45" as="geometry"/>
                </mxCell>
                <mxCell id="h9uBchnlkCVSs993BoGm-9" value="At Human" style="rounded=0;whiteSpace=wrap;html=1;fillColor=#dae8fc;strokeColor=#6c8ebf;" parent="1" vertex="1">
                    <mxGeometry x="120" y="330" width="240" height="50" as="geometry"/>
                </mxCell>
                <mxCell id="h9uBchnlkCVSs993BoGm-10" value="&lt;b&gt;Greeting&lt;/b&gt;" style="text;html=1;align=center;verticalAlign=middle;resizable=0;points=[];autosize=1;strokeColor=none;fillColor=none;" parent="1" vertex="1">
                    <mxGeometry x="210" y="210" width="60" height="20" as="geometry"/>
                </mxCell>
                <mxCell id="h9uBchnlkCVSs993BoGm-12" value="&lt;b&gt;Gesture&lt;br&gt;&lt;br&gt;&lt;br&gt;Speech&lt;br&gt;&lt;br&gt;&lt;br&gt;Gaze&lt;br&gt;&lt;br&gt;&lt;br&gt;Head&lt;br&gt;&lt;br&gt;&lt;br&gt;&lt;br&gt;Posture&lt;/b&gt;" style="text;html=1;align=center;verticalAlign=middle;resizable=0;points=[];autosize=1;strokeColor=none;fillColor=none;" parent="1" vertex="1">
                    <mxGeometry x="50" y="567.5" width="70" height="220" as="geometry"/>
                </mxCell>
                <mxCell id="h9uBchnlkCVSs993BoGm-14" value="" style="endArrow=none;html=1;rounded=0;entryX=1;entryY=0;entryDx=0;entryDy=0;" parent="1" target="h9uBchnlkCVSs993BoGm-19" edge="1">
                    <mxGeometry width="50" height="50" relative="1" as="geometry">
                        <mxPoint x="120" y="645" as="sourcePoint"/>
                        <mxPoint x="790" y="645" as="targetPoint"/>
                    </mxGeometry>
                </mxCell>
                <mxCell id="h9uBchnlkCVSs993BoGm-15" value="" style="endArrow=none;html=1;rounded=0;entryX=1;entryY=1;entryDx=0;entryDy=0;" parent="1" target="h9uBchnlkCVSs993BoGm-19" edge="1">
                    <mxGeometry width="50" height="50" relative="1" as="geometry">
                        <mxPoint x="120" y="690" as="sourcePoint"/>
                        <mxPoint x="790" y="690" as="targetPoint"/>
                    </mxGeometry>
                </mxCell>
                <mxCell id="h9uBchnlkCVSs993BoGm-16" value="" style="endArrow=none;html=1;rounded=0;exitX=1;exitY=1;exitDx=0;exitDy=0;" parent="1" edge="1" source="h9uBchnlkCVSs993BoGm-18">
                    <mxGeometry width="50" height="50" relative="1" as="geometry">
                        <mxPoint x="120" y="750" as="sourcePoint"/>
                        <mxPoint x="520" y="736" as="targetPoint"/>
                        <Array as="points">
                            <mxPoint x="420" y="736"/>
                        </Array>
                    </mxGeometry>
                </mxCell>
                <mxCell id="h9uBchnlkCVSs993BoGm-17" value="It was nice meeting you" style="rounded=0;whiteSpace=wrap;html=1;fillColor=#dae8fc;strokeColor=#6c8ebf;" parent="1" vertex="1">
                    <mxGeometry x="120" y="600" width="200" height="45" as="geometry"/>
                </mxCell>
                <mxCell id="h9uBchnlkCVSs993BoGm-18" value="Nod (top to bottom &lt;br&gt;to top)" style="rounded=0;whiteSpace=wrap;html=1;fillColor=#dae8fc;strokeColor=#6c8ebf;" parent="1" vertex="1">
                    <mxGeometry x="120" y="690" width="160" height="45" as="geometry"/>
                </mxCell>
                <mxCell id="h9uBchnlkCVSs993BoGm-19" value="At Human" style="rounded=0;whiteSpace=wrap;html=1;fillColor=#dae8fc;strokeColor=#6c8ebf;" parent="1" vertex="1">
                    <mxGeometry x="320" y="645" width="200" height="45" as="geometry"/>
                </mxCell>
                <mxCell id="h9uBchnlkCVSs993BoGm-20" value="&lt;b&gt;Say Goodbye&lt;/b&gt;" style="text;html=1;align=center;verticalAlign=middle;resizable=0;points=[];autosize=1;strokeColor=none;fillColor=none;" parent="1" vertex="1">
                    <mxGeometry x="195" y="520" width="90" height="20" as="geometry"/>
                </mxCell>
                <mxCell id="h9uBchnlkCVSs993BoGm-21" value="Goodbye" style="rounded=0;whiteSpace=wrap;html=1;fillColor=#dae8fc;strokeColor=#6c8ebf;" parent="1" vertex="1">
                    <mxGeometry x="360" y="600" width="160" height="45" as="geometry"/>
                </mxCell>
                <mxCell id="h9uBchnlkCVSs993BoGm-23" value="Wave (Right Hand)" style="rounded=0;whiteSpace=wrap;html=1;fillColor=#dae8fc;strokeColor=#6c8ebf;" parent="1" vertex="1">
                    <mxGeometry x="320" y="555" width="200" height="45" as="geometry"/>
                </mxCell>
                <mxCell id="10" value="" style="rounded=0;whiteSpace=wrap;html=1;fillColor=none;" vertex="1" parent="1">
                    <mxGeometry x="120" y="875" width="560" height="225" as="geometry"/>
                </mxCell>
                <mxCell id="11" value="&lt;b&gt;Gesture&lt;br&gt;&lt;br&gt;&lt;br&gt;Speech&lt;br&gt;&lt;br&gt;&lt;br&gt;Gaze&lt;br&gt;&lt;br&gt;&lt;br&gt;Head&lt;br&gt;&lt;br&gt;&lt;br&gt;&lt;br&gt;Face&lt;/b&gt;" style="text;html=1;align=center;verticalAlign=middle;resizable=0;points=[];autosize=1;strokeColor=none;fillColor=none;" vertex="1" parent="1">
                    <mxGeometry x="50" y="887.5" width="70" height="220" as="geometry"/>
                </mxCell>
                <mxCell id="12" value="" style="endArrow=none;html=1;rounded=0;entryX=1;entryY=0;entryDx=0;entryDy=0;" edge="1" parent="1" target="17">
                    <mxGeometry width="50" height="50" relative="1" as="geometry">
                        <mxPoint x="120" y="965" as="sourcePoint"/>
                        <mxPoint x="790" y="965" as="targetPoint"/>
                    </mxGeometry>
                </mxCell>
                <mxCell id="13" value="" style="endArrow=none;html=1;rounded=0;entryX=1;entryY=1;entryDx=0;entryDy=0;" edge="1" parent="1" target="17">
                    <mxGeometry width="50" height="50" relative="1" as="geometry">
                        <mxPoint x="120" y="1010" as="sourcePoint"/>
                        <mxPoint x="790" y="1010" as="targetPoint"/>
                    </mxGeometry>
                </mxCell>
                <mxCell id="14" value="" style="endArrow=none;html=1;rounded=0;exitX=1.021;exitY=0.759;exitDx=0;exitDy=0;exitPerimeter=0;entryX=0.999;entryY=0.802;entryDx=0;entryDy=0;entryPerimeter=0;" edge="1" parent="1" source="11" target="10">
                    <mxGeometry width="50" height="50" relative="1" as="geometry">
                        <mxPoint x="280" y="1055" as="sourcePoint"/>
                        <mxPoint x="680" y="1050" as="targetPoint"/>
                        <Array as="points">
                            <mxPoint x="420" y="1056"/>
                            <mxPoint x="660" y="1056"/>
                        </Array>
                    </mxGeometry>
                </mxCell>
                <mxCell id="24" style="edgeStyle=none;html=1;fontSize=12;exitX=1;exitY=0;exitDx=0;exitDy=0;entryX=0;entryY=0;entryDx=0;entryDy=0;endArrow=none;endFill=0;" edge="1" parent="1" source="15" target="21">
                    <mxGeometry relative="1" as="geometry">
                        <Array as="points">
                            <mxPoint x="220" y="920"/>
                        </Array>
                    </mxGeometry>
                </mxCell>
                <mxCell id="15" value="Alright!" style="rounded=0;whiteSpace=wrap;html=1;fillColor=#dae8fc;strokeColor=#6c8ebf;" vertex="1" parent="1">
                    <mxGeometry x="120" y="920" width="80" height="45" as="geometry"/>
                </mxCell>
                <mxCell id="17" value="At Human" style="rounded=0;whiteSpace=wrap;html=1;fillColor=#dae8fc;strokeColor=#6c8ebf;" vertex="1" parent="1">
                    <mxGeometry x="120" y="965" width="560" height="45" as="geometry"/>
                </mxCell>
                <mxCell id="18" value="&lt;b&gt;Start of Questions&lt;/b&gt;" style="text;html=1;align=center;verticalAlign=middle;resizable=0;points=[];autosize=1;strokeColor=none;fillColor=none;" vertex="1" parent="1">
                    <mxGeometry x="175" y="835" width="130" height="30" as="geometry"/>
                </mxCell>
                <mxCell id="21" value="Do you rather want to live in Bonn or near the campus Sankt Augustin?" style="rounded=0;whiteSpace=wrap;html=1;fillColor=#dae8fc;strokeColor=#6c8ebf;" vertex="1" parent="1">
                    <mxGeometry x="280" y="920" width="400" height="45" as="geometry"/>
                </mxCell>
                <mxCell id="23" value="Smile" style="rounded=0;whiteSpace=wrap;html=1;fillColor=#dae8fc;strokeColor=#6c8ebf;" vertex="1" parent="1">
                    <mxGeometry x="200" y="1055" width="160" height="45" as="geometry"/>
                </mxCell>
                <mxCell id="26" value="Pointing" style="rounded=0;whiteSpace=wrap;html=1;fillColor=#dae8fc;strokeColor=#6c8ebf;" vertex="1" parent="1">
                    <mxGeometry x="280" y="875" width="80" height="45" as="geometry"/>
                </mxCell>
            </root>
        </mxGraphModel>
    </diagram>
</mxfile>